<svg width="54" height="40" viewBox="0 0 54 40" fill="none" xmlns="http://www.w3.org/2000/svg">
<path d="M13 40C8.89876 40 5.52004 38.2868 3 35C0.529376 31.7132 0 28.0038 0 23C0 15.7396 1.70111 9.97362 6 6C10.3483 1.97732 16.3905 0.0981142 24 0V8C19.5035 8 16.273 9.79243 14 12C11.7764 14.2076 10 17.0075 10 20C10 20.9321 10.9012 21.5094 11 22C12.3835 20.9207 14.0235 20 16 20C18.6189 20 20.2706 21.283 22 23C23.7294 24.6679 25 26.9585 25 30C25 32.8944 23.1741 35.0377 21 37C18.8259 38.9623 16.36 40 13 40ZM42 40C37.8988 40 34.52 38.2868 32 35C29.5294 31.7132 29 28.0038 29 23C29 15.7396 30.7011 9.97362 35 6C39.3483 1.97732 45.3905 0.0981142 53 0V8C48.5529 8 45.2236 9.79243 43 12C40.7764 14.2076 40 17.0075 40 20C40 20.9321 39.9012 21.5094 40 22C41.2353 20.9207 42.8753 20 45 20C47.6189 20 49.32 21.283 51 23C52.68 24.6679 54 26.9585 54 30C54 32.9434 53.1741 35.0377 51 37C48.8753 38.9132 45.4095 40 42 40Z" fill="#E4E1D8"/>
</svg>
