<svg width="55" height="55" viewBox="0 0 55 55" fill="none" xmlns="http://www.w3.org/2000/svg">
<rect width="55" height="55" rx="27.5" fill="#766551"/>
<path d="M27.5 14.4043C28.795 14.4043 30.061 14.7883 31.1377 15.5078C32.2145 16.2272 33.0537 17.2498 33.5493 18.4463C34.0448 19.6427 34.1745 20.9592 33.9219 22.2293C33.6692 23.4994 33.0456 24.6661 32.1299 25.5818C31.2142 26.4975 30.0475 27.1211 28.7774 27.3737C27.5073 27.6264 26.1908 27.4967 24.9944 27.0011C23.798 26.5056 22.7754 25.6663 22.0559 24.5896C21.3364 23.5128 20.9524 22.2469 20.9524 20.9519L20.959 20.6677C21.0322 18.9821 21.7533 17.3897 22.972 16.2228C24.1907 15.0558 25.8128 14.4044 27.5 14.4043ZM30.1191 30.1186C31.8556 30.1186 33.521 30.8084 34.749 32.0363C35.9769 33.2643 36.6667 34.9297 36.6667 36.6662V37.9757C36.6667 38.6703 36.3908 39.3365 35.8996 39.8277C35.4084 40.3188 34.7423 40.5948 34.0477 40.5948H20.9524C20.2578 40.5948 19.5916 40.3188 19.1005 39.8277C18.6093 39.3365 18.3334 38.6703 18.3334 37.9757V36.6662C18.3334 34.9297 19.0232 33.2643 20.2511 32.0363C21.479 30.8084 23.1445 30.1186 24.881 30.1186H30.1191Z" fill="white"/>
</svg>
